# xmcd
#
# Track frame offsets:
# 150
# 12845
# 25827
# 42715
# 54537
# 68740
# 85722
# 104597
# 118212
# 138762
# 151967
# 169757
#
# Disc length: 2448 seconds
#
#
# Revision: 0
# Processed by: cddbd v1.5.1PL2 Copyright (c) Steve Scherf et al.
# Submitted via: FreeRIP 2.943 
#
DISCID=9b098e0c
DTITLE=Various Artist - My kind of country
DYEAR=2001
DGENRE=Country
TTITLE0=John Brack - Cruising down the highway felling
TTITLE1=Rebecca Holden - True blue avenue
TTITLE2=Val and Bird - Good bye my heart
TTITLE3=John Brack - Sleepin' on the shoulder of the road
TTITLE4=Billy Troy - Do it like Elvis
TTITLE5=Bill Britt - Satisfied
TTITLE6=John Brack - In the pines
TTITLE7=Curtis Young - Save the last dance for me
TTITLE8=Susan Orus - Stand alone
TTITLE9=John Brack - Cold lonesome shadow
TTITLE10=Joyce'n'Webber - Midnight special
TTITLE11=John Brack and Bjoro Haland - I always fall in love
EXTD=
EXTT0=
EXTT1=
EXTT2=
EXTT3=
EXTT4=
EXTT5=
EXTT6=
EXTT7=
EXTT8=
EXTT9=
EXTT10=
EXTT11=
PLAYORDER=
